<?xml version="1.0" encoding="UTF-8" standalone="no"?>
<!DOCTYPE svg PUBLIC "-//W3C//DTD SVG 1.1//EN" "http://www.w3.org/Graphics/SVG/1.1/DTD/svg11.dtd">
<svg width="100%" height="100%" viewBox="0 0 511 511" version="1.1" xmlns="http://www.w3.org/2000/svg" xmlns:xlink="http://www.w3.org/1999/xlink" xml:space="preserve" xmlns:serif="http://www.serif.com/" style="fill-rule:evenodd;clip-rule:evenodd;stroke-linejoin:round;stroke-miterlimit:2;">
    <g id="Layer-1" serif:id="Layer 1">
        <rect id="rect1417" x="0" y="-0" width="510.236" height="510.236" style="fill:rgb(17,9,3);"/>
        <rect id="rect46" x="241.5" y="120.004" width="27" height="269.995" style="fill:white;"/>
        <rect id="rect56" x="79.5" y="235.715" width="27" height="38.571" style="fill:white;"/>
        <rect id="rect58" x="120" y="210.001" width="27" height="89.998" style="fill:white;"/>
        <rect id="rect60" x="201" y="184.287" width="27" height="141.426" style="fill:white;"/>
        <rect id="rect62" x="160.5" y="158.573" width="27" height="192.853" style="fill:white;"/>
        <g id="rect1066" transform="matrix(-1,0,0,-1,0,0)">
            <rect x="-430.5" y="-274.286" width="27" height="38.571" style="fill:white;"/>
        </g>
        <g id="rect1068" transform="matrix(-1,0,0,-1,0,0)">
            <rect x="-390" y="-300" width="27" height="89.998" style="fill:white;"/>
        </g>
        <g id="rect1070" transform="matrix(-1,0,0,-1,0,0)">
            <rect x="-309" y="-325.713" width="27" height="141.426" style="fill:white;"/>
        </g>
        <g id="rect1072" transform="matrix(-1,0,0,-1,0,0)">
            <rect x="-349.5" y="-351.427" width="27" height="192.853" style="fill:white;"/>
        </g>
    </g>
</svg>
