<?xml version="1.0" encoding="UTF-8" standalone="no"?>
<!DOCTYPE svg PUBLIC "-//W3C//DTD SVG 1.1//EN" "http://www.w3.org/Graphics/SVG/1.1/DTD/svg11.dtd">
<svg width="100%" height="100%" viewBox="0 0 32 32" version="1.1" xmlns="http://www.w3.org/2000/svg" xmlns:xlink="http://www.w3.org/1999/xlink" xml:space="preserve" xmlns:serif="http://www.serif.com/" style="fill-rule:evenodd;clip-rule:evenodd;stroke-linejoin:round;stroke-miterlimit:2;">
    <g id="Layer-1" serif:id="Layer 1">
        <g id="rect1417" transform="matrix(1.00715,0,0,0.996177,-0.176309,-0.0871935)">
            <path d="M31.948,6.111C31.948,2.786 29.278,0.088 25.99,0.088L6.132,0.088C2.844,0.088 0.175,2.786 0.175,6.111L0.175,26.187C0.175,29.511 2.844,32.21 6.132,32.21L25.99,32.21C29.278,32.21 31.948,29.511 31.948,26.187L31.948,6.111Z" style="fill:rgb(17,9,3);"/>
        </g>
        <rect id="rect46" x="14.927" y="5" width="2.268" height="22.298" style="fill:white;"/>
        <rect id="rect56" x="1.318" y="14.556" width="2.268" height="3.185" style="fill:white;"/>
        <rect id="rect58" x="4.721" y="12.433" width="2.268" height="7.433" style="fill:white;"/>
        <rect id="rect60" x="11.525" y="10.309" width="2.268" height="11.68" style="fill:white;"/>
        <rect id="rect62" x="8.123" y="8.185" width="2.268" height="15.927" style="fill:white;"/>
        <g id="rect1066" transform="matrix(-1,0,0,-1,0,0)">
            <rect x="-30.805" y="-17.742" width="2.268" height="3.185" style="fill:white;"/>
        </g>
        <g id="rect1068" transform="matrix(-1,0,0,-1,0,0)">
            <rect x="-27.402" y="-19.865" width="2.268" height="7.433" style="fill:white;"/>
        </g>
        <g id="rect1070" transform="matrix(-1,0,0,-1,0,0)">
            <rect x="-20.598" y="-21.989" width="2.268" height="11.68" style="fill:white;"/>
        </g>
        <g id="rect1072" transform="matrix(-1,0,0,-1,0,0)">
            <rect x="-24" y="-24.112" width="2.268" height="15.927" style="fill:white;"/>
        </g>
    </g>
</svg>
