<?xml version="1.0" encoding="UTF-8" standalone="no"?>
<!DOCTYPE svg PUBLIC "-//W3C//DTD SVG 1.1//EN" "http://www.w3.org/Graphics/SVG/1.1/DTD/svg11.dtd">
<svg width="100%" height="100%" viewBox="0 0 90 72" version="1.1" xmlns="http://www.w3.org/2000/svg" xmlns:xlink="http://www.w3.org/1999/xlink" xml:space="preserve" xmlns:serif="http://www.serif.com/" style="fill-rule:evenodd;clip-rule:evenodd;stroke-linejoin:round;stroke-miterlimit:2;">
    <g transform="matrix(1,0,0,1,0.138211,0)">
        <path d="M18.49,38.15L46.67,10C50.607,6.084 57.063,6.084 61,10L63.19,12.19L67.58,7.8L65.39,5.6C59.039,-0.738 48.601,-0.738 42.25,5.6L14.09,33.76L18.49,38.15Z" style="fill-rule:nonzero;"/>
        <path d="M56.11,19.27L51.72,14.88L23.53,43.07C21.627,44.971 19.045,46.041 16.355,46.041C10.787,46.041 6.204,41.458 6.204,35.89C6.204,33.198 7.276,30.613 9.18,28.71L33.5,4.39L29.11,0L4.79,24.32C1.64,27.397 -0.138,31.619 -0.138,36.023C-0.138,44.998 7.247,52.383 16.222,52.383C20.623,52.383 24.843,50.607 27.92,47.46L56.11,19.27ZM84.17,24.32C77.816,17.988 67.384,17.988 61.03,24.32L32.84,52.51L37.23,56.9L65.42,28.71C67.322,26.812 69.903,25.744 72.59,25.744C78.157,25.744 82.738,30.323 82.74,35.89C82.75,38.589 81.668,41.181 79.74,43.07L55.45,67.39L59.85,71.78L84.17,47.46C90.508,41.109 90.508,30.671 84.17,24.32Z" style="fill-rule:nonzero;"/>
        <path d="M70.47,33.63L42.28,61.81C38.337,65.74 31.863,65.74 27.92,61.81L25.73,59.61L21.34,64L23.53,66.2C29.884,72.532 40.316,72.532 46.67,66.2L74.86,38L70.47,33.63Z" style="fill-rule:nonzero;"/>
    </g>
</svg>
