<?xml version="1.0" encoding="UTF-8" standalone="no"?>
<!DOCTYPE svg PUBLIC "-//W3C//DTD SVG 1.1//EN" "http://www.w3.org/Graphics/SVG/1.1/DTD/svg11.dtd">
<svg width="100%" height="100%" viewBox="0 0 311 311" version="1.1" xmlns="http://www.w3.org/2000/svg" xmlns:xlink="http://www.w3.org/1999/xlink" xml:space="preserve" xmlns:serif="http://www.serif.com/" style="fill-rule:evenodd;clip-rule:evenodd;stroke-linejoin:round;stroke-miterlimit:2;">
    <g transform="matrix(1,0,0,1,0,95)">
        <path d="M178,2.3C172,5.3 169.4,10.9 169.4,26.1C169.4,26.1 172.4,23.1 177.2,21.3C180.7,20 183.2,18.3 185,17C190.2,13.1 191,8.4 191,0.2C190.9,0.2 182.7,-0.3 178,2.3Z" style="fill:rgb(251,189,113);fill-rule:nonzero;"/>
    </g>
    <g transform="matrix(1,0,0,1,0,95)">
        <path d="M141.3,5.8C136.1,10.1 134.8,17.5 134.8,17.5L118,81.9L104.2,29.2C102.9,23.6 100.3,16.7 96.4,11.9C91.6,5.8 81.6,5.4 80.4,5.4C79.5,5.4 69.6,5.8 64.4,11.9C60.5,16.7 57.9,23.6 56.6,29.2L43.6,81.9L26.8,17.5C26.8,17.5 25.5,10.6 20.3,5.8C12.1,-1.6 0,0.2 0,0.2L32,120.7C32,120.7 42.4,121.6 47.6,119C54.5,115.5 58,113 61.9,96.5C65.8,81.8 76.2,39 77,36C77.4,34.7 78.3,30.8 80.9,30.8C83.5,30.8 84.4,34.3 84.8,36C85.7,39 96,81.8 99.9,96.5C104.2,112.9 107.2,115.5 114.2,119C119.4,121.6 129.8,120.7 129.8,120.7L161.6,0.2C161.6,0.2 149.5,-1.5 141.3,5.8Z" style="fill-rule:nonzero;"/>
    </g>
    <g transform="matrix(1,0,0,1,0,95)">
        <path d="M190.9,19.6C190.9,19.6 188.7,22.6 184.4,25.2C181.4,26.9 178.8,27.8 175.8,29.5C170.6,32.1 169.3,34.7 169.3,38.6L169.3,120.3C169.3,120.3 177.5,121.2 182.7,118.6C189.6,115.1 190.9,111.7 190.9,97L190.9,19.6Z" style="fill-rule:nonzero;"/>
    </g>
    <g transform="matrix(1,0,0,1,0,95)">
        <path d="M270.4,60.7L311,0.6C311,0.6 294.2,-2.4 285.5,5.4C279.9,10.2 274.3,19.2 274.3,19.2L259.6,40.8C258.7,42.1 257.9,43 256.6,43C255.3,43 254,41.7 253.6,40.8L238.9,19.2C238.9,19.2 232.9,10.6 227.7,5.4C219.1,-2.4 202.2,0.6 202.2,0.6L241.5,60.6L201.3,120.6C201.3,120.6 219,122.8 227.7,115C233.3,110.2 238.5,102 238.5,102L253.2,80.4C254.1,79.1 254.9,78.2 256.2,78.2C257.5,78.2 258.8,79.5 259.2,80.4L273.9,102C273.9,102 279.5,110.2 284.7,115C293.3,122.8 310.6,120.6 310.6,120.6L270.4,60.7Z" style="fill-rule:nonzero;"/>
    </g>
</svg>
