<svg xmlns="http://www.w3.org/2000/svg" viewBox="0 0 680 680"><defs><style type="text/css">.a{fill:#32373c}</style></defs><path class="a" d="M340 26.7a311.8 311.8 0 0 1 175.2 53.5A314.3 314.3 0 0 1 628.7 218a312.9 312.9 0 0 1-28.9 297.2A314.3 314.3 0 0 1 462 628.7a312.9 312.9 0 0 1-297.2-28.9A314.3 314.3 0 0 1 51.3 462a312.9 312.9 0 0 1 28.9-297.2A314.3 314.3 0 0 1 218 51.3a311.4 311.4 0 0 1 122-24.6m0-20a333.3 333.3 0 1 0 0 666.6 333.3 333.3 0 0 0 0-666.6z"/><path class="a" d="M62.2 340c0 110 64 205 156.6 250L86.3 227a276.7 276.7 0 0 0-24 113zm465.3-14c0-34.4-12.3-58.1-22.9-76.6-14-23-27.3-42.3-27.3-65.2 0-25.5 19.4-49.3 46.7-49.3l3.6.3a276.7 276.7 0 0 0-187.6-73c-97 0-182.4 49.8-232 125.2 6.4.2 12.6.4 17.8.4 29 0 74-3.6 74-3.6 15-.8 16.8 21.2 1.8 23 0 0-15 1.7-31.8 2.6L271 510.6l60.8-182.3-43.3-118.5c-15-1-29.2-2.7-29.2-2.7-15-.9-13.2-23.8 1.8-22.9 0 0 45.9 3.6 73.2 3.6 29 0 74-3.6 74-3.6 15-.9 16.7 21.1 1.8 23 0 0-15 1.7-31.8 2.6l100.4 298.5 28.6-90.8c12.8-39.6 20.2-67.8 20.2-91.5zM345 364.3l-83.4 242.2a277.9 277.9 0 0 0 170.8-4.5 25.3 25.3 0 0 1-2-3.8zm238.9-157.6a213.3 213.3 0 0 1 1.8 28.6c0 28.2-5.3 59.9-21.1 99.5L479.7 580a277.6 277.6 0 0 0 138-240.1 276.5 276.5 0 0 0-34-133.3z"/></svg>